<svg xmlns="http://www.w3.org/2000/svg" xmlns:xlink="http://www.w3.org/1999/xlink" width="500" zoomAndPan="magnify" viewBox="0 0 375 374.999991" height="500" preserveAspectRatio="xMidYMid meet" version="1.0"><defs><g/><clipPath id="77f349c32b"><path d="M 26.574219 179.804688 L 336.75 179.804688 L 336.75 208.929688 L 26.574219 208.929688 Z M 26.574219 179.804688 " clip-rule="nonzero"/></clipPath></defs><g fill="#100e0d" fill-opacity="1"><g transform="translate(101.058749, 253.077412)"><g><path d="M 12.4375 0 L 37.316406 0 L 37.316406 -2.320312 C 29.515625 -4.003906 24.667969 -8.644531 24.667969 -30.570312 L 24.667969 -130.71875 L 79.90625 -40.058594 L 82.859375 -40.058594 L 139.359375 -131.980469 L 139.359375 -26.777344 C 139.359375 -7.378906 136.832031 -3.796875 130.929688 -2.320312 L 130.929688 0 L 159.601562 0 L 159.601562 -2.320312 C 153.699219 -3.796875 151.167969 -7.378906 151.167969 -26.777344 L 151.167969 -117.011719 C 151.167969 -138.941406 155.59375 -143.578125 162.554688 -145.265625 L 162.554688 -147.582031 L 145.265625 -147.582031 L 139.570312 -138.308594 L 139.359375 -137.886719 L 86.652344 -52.074219 L 28.25 -147.582031 L 9.488281 -147.582031 L 9.488281 -145.265625 C 16.445312 -143.578125 20.871094 -138.941406 20.871094 -117.011719 L 20.871094 -26.777344 C 20.871094 -7.378906 18.34375 -3.796875 12.4375 -2.320312 Z M 12.4375 0 "/></g></g></g><g fill="#100e0d" fill-opacity="1"><g transform="translate(125.733167, 237.162482)"><g><path d="M 37.367188 0.800781 C 48.601562 0.800781 59.835938 -4.242188 69.003906 -15.476562 C 63.042969 -2.0625 58.34375 6.304688 53.988281 13.183594 C 48.832031 21.320312 44.820312 25.675781 35.992188 28.65625 L 36.679688 30.03125 C 42.527344 27.96875 47.683594 25.21875 52.269531 21.664062 C 56.742188 18.109375 59.492188 14.558594 61.324219 11.117188 C 66.484375 1.835938 73.933594 -11.003906 86.429688 -43.789062 C 86.886719 -44.933594 86.886719 -45.277344 86.085938 -45.277344 C 85.625 -45.277344 85.28125 -45.277344 84.824219 -45.277344 C 75.195312 -45.164062 61.441406 -45.390625 55.25 -45.390625 C 53.875 -45.390625 52.726562 -45.507812 51.925781 -44.820312 C 50.4375 -43.445312 48.832031 -41.378906 48.832031 -40.347656 C 48.832031 -39.890625 48.945312 -39.546875 50.09375 -39.546875 C 52.613281 -39.546875 68.660156 -39.890625 79.207031 -40.003906 C 76.339844 -32.785156 73.820312 -26.59375 71.414062 -21.089844 C 61.667969 -7.792969 51.925781 -4.355469 42.183594 -4.355469 C 23.726562 -4.242188 14.441406 -17.996094 14.441406 -32.898438 C 14.441406 -62.929688 40.121094 -85.96875 63.617188 -90.324219 C 76.113281 -85.28125 85.855469 -80.8125 90.210938 -80.8125 C 94.222656 -80.8125 97.203125 -84.824219 97.203125 -86.429688 C 97.203125 -90.097656 84.9375 -92.960938 72.671875 -92.617188 C 38.972656 -91.703125 7.679688 -61.210938 7.679688 -28.199219 C 7.679688 -13.984375 16.507812 0.800781 37.367188 0.800781 Z M 37.367188 0.800781 "/></g></g></g><g clip-path="url(#77f349c32b)"><path fill="#ffffff" d="M 26.574219 179.804688 L 336.75 179.804688 L 336.75 208.929688 L 26.574219 208.929688 Z M 26.574219 179.804688 " fill-opacity="1" fill-rule="nonzero"/></g><g fill="#2b2b2b" fill-opacity="1"><g transform="translate(113.836696, 198.555748)"><g><path d="M 0.3125 -5 C 0.3125 -6.539062 0.765625 -7.769531 1.671875 -8.6875 C 2.609375 -9.632812 3.859375 -10.109375 5.421875 -10.109375 C 6.484375 -10.109375 7.660156 -9.863281 8.953125 -9.375 L 8.953125 -7.0625 L 8.265625 -7.0625 C 8.097656 -7.0625 8.003906 -7.132812 7.984375 -7.28125 C 7.984375 -7.289062 7.976562 -7.34375 7.96875 -7.4375 C 7.957031 -7.539062 7.941406 -7.691406 7.921875 -7.890625 C 7.898438 -8.097656 7.882812 -8.316406 7.875 -8.546875 L 7.34375 -8.703125 C 6.757812 -8.859375 6.160156 -8.9375 5.546875 -8.9375 C 4.867188 -8.9375 4.300781 -8.84375 3.84375 -8.65625 C 3.40625 -8.46875 3.019531 -8.207031 2.6875 -7.875 C 2.03125 -7.164062 1.703125 -6.207031 1.703125 -5 C 1.703125 -3.738281 2.039062 -2.75 2.71875 -2.03125 C 3.394531 -1.320312 4.273438 -0.96875 5.359375 -0.96875 C 6.253906 -0.96875 7.078125 -1.164062 7.828125 -1.5625 L 7.828125 -3.765625 L 6.28125 -3.765625 C 6.1875 -3.765625 6.109375 -3.789062 6.046875 -3.84375 C 5.992188 -3.90625 5.96875 -3.96875 5.96875 -4.03125 L 5.96875 -4.796875 L 9.046875 -4.796875 L 9.046875 -0.953125 C 8.054688 -0.242188 6.789062 0.109375 5.25 0.109375 C 3.78125 0.109375 2.59375 -0.359375 1.6875 -1.296875 C 0.769531 -2.242188 0.3125 -3.476562 0.3125 -5 Z M 0.3125 -5 "/></g></g></g><g fill="#2b2b2b" fill-opacity="1"><g transform="translate(125.937127, 198.555748)"><g><path d="M 0.234375 -9.40625 L 0.234375 -9.984375 L 3.734375 -9.984375 L 3.734375 -9.40625 C 3.734375 -9.257812 3.660156 -9.171875 3.515625 -9.140625 C 3.328125 -9.097656 3.019531 -9.046875 2.59375 -8.984375 L 2.59375 -3.9375 C 2.59375 -3.0625 2.828125 -2.367188 3.296875 -1.859375 C 3.765625 -1.335938 4.410156 -1.078125 5.234375 -1.078125 C 6.054688 -1.078125 6.703125 -1.335938 7.171875 -1.859375 C 7.640625 -2.378906 7.875 -3.066406 7.875 -3.921875 L 7.875 -8.984375 C 7.414062 -9.054688 7.109375 -9.109375 6.953125 -9.140625 C 6.796875 -9.171875 6.71875 -9.257812 6.71875 -9.40625 L 6.71875 -9.984375 L 10.21875 -9.984375 L 10.21875 -9.390625 C 10.21875 -9.242188 10.140625 -9.15625 9.984375 -9.125 L 9.203125 -8.96875 L 9.203125 -3.90625 C 9.203125 -2.757812 8.847656 -1.800781 8.140625 -1.03125 C 7.410156 -0.257812 6.4375 0.125 5.21875 0.125 C 4.007812 0.125 3.039062 -0.257812 2.3125 -1.03125 C 1.59375 -1.800781 1.234375 -2.757812 1.234375 -3.90625 L 1.234375 -8.96875 C 0.796875 -9.050781 0.535156 -9.109375 0.453125 -9.140625 C 0.304688 -9.160156 0.234375 -9.25 0.234375 -9.40625 Z M 0.234375 -9.40625 "/></g></g></g><g fill="#2b2b2b" fill-opacity="1"><g transform="translate(138.943186, 198.555748)"><g><path d="M 0.46875 -0.015625 L 0.46875 -0.609375 C 0.46875 -0.742188 0.535156 -0.828125 0.671875 -0.859375 L 1.484375 -1.03125 L 1.484375 -8.984375 C 1.023438 -9.078125 0.753906 -9.132812 0.671875 -9.15625 C 0.535156 -9.1875 0.46875 -9.269531 0.46875 -9.40625 L 0.46875 -10.015625 L 4.15625 -10.015625 C 4.769531 -10.015625 5.320312 -9.953125 5.8125 -9.828125 C 6.269531 -9.703125 6.648438 -9.515625 6.953125 -9.265625 C 7.253906 -9.015625 7.472656 -8.722656 7.609375 -8.390625 C 7.753906 -8.046875 7.828125 -7.660156 7.828125 -7.234375 C 7.828125 -6.898438 7.769531 -6.570312 7.65625 -6.25 C 7.550781 -5.957031 7.390625 -5.679688 7.171875 -5.421875 C 6.960938 -5.160156 6.707031 -4.945312 6.40625 -4.78125 C 6.050781 -4.582031 5.707031 -4.445312 5.375 -4.375 C 5.550781 -4.28125 5.695312 -4.144531 5.8125 -3.96875 L 7.984375 -1 C 8.453125 -0.925781 8.710938 -0.878906 8.765625 -0.859375 L 8.75 -0.859375 C 8.882812 -0.828125 8.953125 -0.742188 8.953125 -0.609375 L 8.953125 0 L 7.515625 0 C 7.265625 0 7.085938 -0.0976562 6.984375 -0.296875 L 4.375 -3.859375 C 4.300781 -3.953125 4.21875 -4.03125 4.125 -4.09375 C 4.039062 -4.15625 3.90625 -4.1875 3.71875 -4.1875 L 2.828125 -4.1875 L 2.828125 -1.03125 C 3.265625 -0.9375 3.519531 -0.878906 3.59375 -0.859375 C 3.65625 -0.847656 3.707031 -0.816406 3.75 -0.765625 C 3.800781 -0.722656 3.828125 -0.671875 3.828125 -0.609375 L 3.828125 -0.015625 Z M 2.8125 -5.171875 L 4.09375 -5.171875 L 4.078125 -5.171875 C 4.484375 -5.171875 4.832031 -5.210938 5.125 -5.296875 C 5.394531 -5.390625 5.644531 -5.53125 5.875 -5.71875 C 6.082031 -5.90625 6.238281 -6.113281 6.34375 -6.34375 C 6.4375 -6.570312 6.484375 -6.835938 6.484375 -7.140625 C 6.484375 -7.722656 6.289062 -8.171875 5.90625 -8.484375 C 5.519531 -8.785156 4.9375 -8.9375 4.15625 -8.9375 L 2.8125 -8.9375 Z M 2.8125 -5.171875 "/></g></g></g><g fill="#2b2b2b" fill-opacity="1"><g transform="translate(150.839339, 198.555748)"><g><path d="M 0.484375 0 L 0.484375 -0.609375 C 0.484375 -0.753906 0.550781 -0.835938 0.6875 -0.859375 L 1.484375 -1.03125 L 1.484375 -8.984375 C 1.046875 -9.066406 0.78125 -9.125 0.6875 -9.15625 C 0.550781 -9.175781 0.484375 -9.257812 0.484375 -9.40625 L 0.484375 -10.015625 L 2.484375 -10.015625 C 2.617188 -10.015625 2.710938 -10 2.765625 -9.96875 C 2.835938 -9.925781 2.894531 -9.867188 2.9375 -9.796875 L 6.390625 -3.625 C 6.484375 -3.46875 6.585938 -3.226562 6.703125 -2.90625 C 6.773438 -3.09375 6.882812 -3.335938 7.03125 -3.640625 L 10.40625 -9.796875 C 10.445312 -9.867188 10.507812 -9.925781 10.59375 -9.96875 C 10.65625 -10 10.75 -10.015625 10.875 -10.015625 L 12.890625 -10.015625 L 12.890625 -9.40625 C 12.890625 -9.257812 12.816406 -9.175781 12.671875 -9.15625 L 11.875 -8.984375 L 11.875 -1.03125 C 12.289062 -0.957031 12.554688 -0.898438 12.671875 -0.859375 C 12.816406 -0.835938 12.890625 -0.753906 12.890625 -0.609375 L 12.890625 0 L 9.546875 0 L 9.546875 -0.609375 C 9.546875 -0.753906 9.613281 -0.835938 9.75 -0.859375 C 10.050781 -0.921875 10.363281 -0.976562 10.6875 -1.03125 L 10.6875 -7.34375 C 10.6875 -7.632812 10.695312 -7.859375 10.71875 -8.015625 L 7.28125 -1.75 C 7.175781 -1.539062 7.019531 -1.4375 6.8125 -1.4375 L 6.609375 -1.4375 C 6.390625 -1.4375 6.222656 -1.539062 6.109375 -1.75 L 2.625 -8.03125 L 2.640625 -8.046875 C 2.660156 -7.796875 2.671875 -7.566406 2.671875 -7.359375 L 2.671875 -1.03125 C 3.117188 -0.957031 3.4375 -0.898438 3.625 -0.859375 C 3.75 -0.835938 3.8125 -0.753906 3.8125 -0.609375 L 3.8125 0 Z M 0.484375 0 "/></g></g></g><g fill="#2b2b2b" fill-opacity="1"><g transform="translate(166.705278, 198.555748)"><g><path d="M 0.34375 0 L 0.34375 -0.5625 C 0.34375 -0.675781 0.40625 -0.75 0.53125 -0.78125 L 1.09375 -0.953125 L 4.71875 -9.984375 L 6.078125 -9.984375 L 9.6875 -0.953125 L 10.25 -0.78125 C 10.375 -0.75 10.4375 -0.675781 10.4375 -0.5625 L 10.4375 0 L 7.5625 0 L 7.5625 -0.5625 C 7.5625 -0.6875 7.628906 -0.757812 7.765625 -0.78125 L 8.328125 -0.953125 L 7.546875 -2.953125 L 3.234375 -2.953125 L 2.453125 -0.953125 L 3.03125 -0.78125 C 3.144531 -0.757812 3.203125 -0.6875 3.203125 -0.5625 L 3.203125 0 Z M 3.609375 -3.9375 L 7.171875 -3.9375 L 5.703125 -7.78125 C 5.585938 -8.039062 5.484375 -8.351562 5.390625 -8.71875 C 5.273438 -8.289062 5.179688 -7.976562 5.109375 -7.78125 Z M 3.609375 -3.9375 "/></g></g></g><g fill="#2b2b2b" fill-opacity="1"><g transform="translate(180.038182, 198.555748)"><g><path d="M 0.484375 0 L 0.484375 -0.59375 C 0.484375 -0.65625 0.5 -0.710938 0.53125 -0.765625 C 0.570312 -0.816406 0.625 -0.847656 0.6875 -0.859375 L 1.484375 -1.015625 L 1.484375 -8.984375 C 1.023438 -9.066406 0.757812 -9.117188 0.6875 -9.140625 C 0.625 -9.148438 0.570312 -9.179688 0.53125 -9.234375 C 0.5 -9.285156 0.484375 -9.34375 0.484375 -9.40625 L 0.484375 -9.984375 L 3.828125 -9.984375 L 3.828125 -9.40625 C 3.828125 -9.34375 3.804688 -9.285156 3.765625 -9.234375 C 3.722656 -9.179688 3.671875 -9.148438 3.609375 -9.140625 C 3.554688 -9.117188 3.414062 -9.085938 3.1875 -9.046875 C 2.957031 -9.003906 2.835938 -8.984375 2.828125 -8.984375 L 2.828125 -1.140625 L 6.421875 -1.140625 C 6.453125 -1.578125 6.476562 -1.84375 6.5 -1.9375 C 6.507812 -2.007812 6.539062 -2.066406 6.59375 -2.109375 C 6.65625 -2.148438 6.722656 -2.171875 6.796875 -2.171875 L 7.484375 -2.171875 L 7.484375 0 Z M 0.484375 0 "/></g></g></g><g fill="#2b2b2b" fill-opacity="1"><g transform="translate(190.552063, 198.555748)"><g/></g></g><g fill="#2b2b2b" fill-opacity="1"><g transform="translate(196.11563, 198.555748)"><g><path d="M 0.484375 0 L 0.484375 -0.609375 C 0.484375 -0.753906 0.550781 -0.835938 0.6875 -0.859375 L 1.484375 -1.03125 L 1.484375 -8.984375 C 1.046875 -9.066406 0.78125 -9.125 0.6875 -9.15625 C 0.550781 -9.175781 0.484375 -9.257812 0.484375 -9.40625 L 0.484375 -10.015625 L 2.484375 -10.015625 C 2.617188 -10.015625 2.710938 -10 2.765625 -9.96875 C 2.835938 -9.925781 2.894531 -9.867188 2.9375 -9.796875 L 6.390625 -3.625 C 6.484375 -3.46875 6.585938 -3.226562 6.703125 -2.90625 C 6.773438 -3.09375 6.882812 -3.335938 7.03125 -3.640625 L 10.40625 -9.796875 C 10.445312 -9.867188 10.507812 -9.925781 10.59375 -9.96875 C 10.65625 -10 10.75 -10.015625 10.875 -10.015625 L 12.890625 -10.015625 L 12.890625 -9.40625 C 12.890625 -9.257812 12.816406 -9.175781 12.671875 -9.15625 L 11.875 -8.984375 L 11.875 -1.03125 C 12.289062 -0.957031 12.554688 -0.898438 12.671875 -0.859375 C 12.816406 -0.835938 12.890625 -0.753906 12.890625 -0.609375 L 12.890625 0 L 9.546875 0 L 9.546875 -0.609375 C 9.546875 -0.753906 9.613281 -0.835938 9.75 -0.859375 C 10.050781 -0.921875 10.363281 -0.976562 10.6875 -1.03125 L 10.6875 -7.34375 C 10.6875 -7.632812 10.695312 -7.859375 10.71875 -8.015625 L 7.28125 -1.75 C 7.175781 -1.539062 7.019531 -1.4375 6.8125 -1.4375 L 6.609375 -1.4375 C 6.390625 -1.4375 6.222656 -1.539062 6.109375 -1.75 L 2.625 -8.03125 L 2.640625 -8.046875 C 2.660156 -7.796875 2.671875 -7.566406 2.671875 -7.359375 L 2.671875 -1.03125 C 3.117188 -0.957031 3.4375 -0.898438 3.625 -0.859375 C 3.75 -0.835938 3.8125 -0.753906 3.8125 -0.609375 L 3.8125 0 Z M 0.484375 0 "/></g></g></g><g fill="#2b2b2b" fill-opacity="1"><g transform="translate(211.981564, 198.555748)"><g><path d="M 0.34375 0 L 0.34375 -0.5625 C 0.34375 -0.675781 0.40625 -0.75 0.53125 -0.78125 L 1.09375 -0.953125 L 4.71875 -9.984375 L 6.078125 -9.984375 L 9.6875 -0.953125 L 10.25 -0.78125 C 10.375 -0.75 10.4375 -0.675781 10.4375 -0.5625 L 10.4375 0 L 7.5625 0 L 7.5625 -0.5625 C 7.5625 -0.6875 7.628906 -0.757812 7.765625 -0.78125 L 8.328125 -0.953125 L 7.546875 -2.953125 L 3.234375 -2.953125 L 2.453125 -0.953125 L 3.03125 -0.78125 C 3.144531 -0.757812 3.203125 -0.6875 3.203125 -0.5625 L 3.203125 0 Z M 3.609375 -3.9375 L 7.171875 -3.9375 L 5.703125 -7.78125 C 5.585938 -8.039062 5.484375 -8.351562 5.390625 -8.71875 C 5.273438 -8.289062 5.179688 -7.976562 5.109375 -7.78125 Z M 3.609375 -3.9375 "/></g></g></g><g fill="#2b2b2b" fill-opacity="1"><g transform="translate(225.314467, 198.555748)"><g><path d="M 0.34375 0 L 0.34375 -0.5625 C 0.34375 -0.675781 0.40625 -0.75 0.53125 -0.78125 L 1.09375 -0.953125 L 4.71875 -9.984375 L 6.078125 -9.984375 L 9.6875 -0.953125 L 10.25 -0.78125 C 10.375 -0.75 10.4375 -0.675781 10.4375 -0.5625 L 10.4375 0 L 7.5625 0 L 7.5625 -0.5625 C 7.5625 -0.6875 7.628906 -0.757812 7.765625 -0.78125 L 8.328125 -0.953125 L 7.546875 -2.953125 L 3.234375 -2.953125 L 2.453125 -0.953125 L 3.03125 -0.78125 C 3.144531 -0.757812 3.203125 -0.6875 3.203125 -0.5625 L 3.203125 0 Z M 3.609375 -3.9375 L 7.171875 -3.9375 L 5.703125 -7.78125 C 5.585938 -8.039062 5.484375 -8.351562 5.390625 -8.71875 C 5.273438 -8.289062 5.179688 -7.976562 5.109375 -7.78125 Z M 3.609375 -3.9375 "/></g></g></g><g fill="#2b2b2b" fill-opacity="1"><g transform="translate(238.647371, 198.555748)"><g><path d="M 0.484375 0.015625 L 0.484375 -0.578125 C 0.484375 -0.722656 0.550781 -0.8125 0.6875 -0.84375 L 1.484375 -1 L 1.484375 -8.953125 C 1.023438 -9.035156 0.757812 -9.09375 0.6875 -9.125 C 0.550781 -9.144531 0.484375 -9.234375 0.484375 -9.390625 L 0.484375 -9.984375 L 2.171875 -9.984375 C 2.296875 -9.984375 2.382812 -9.972656 2.4375 -9.953125 C 2.476562 -9.921875 2.550781 -9.859375 2.65625 -9.765625 L 8.421875 -2.234375 L 8.421875 -2.203125 C 8.410156 -2.335938 8.40625 -2.570312 8.40625 -2.90625 L 8.40625 -8.953125 C 8.238281 -8.984375 8.085938 -9.007812 7.953125 -9.03125 C 7.816406 -9.050781 7.707031 -9.070312 7.625 -9.09375 C 7.539062 -9.113281 7.492188 -9.125 7.484375 -9.125 C 7.328125 -9.15625 7.25 -9.238281 7.25 -9.375 L 7.25 -9.984375 L 10.59375 -9.984375 L 10.59375 -9.375 C 10.59375 -9.226562 10.523438 -9.144531 10.390625 -9.125 L 9.59375 -8.953125 L 9.59375 0.015625 L 8.90625 0.015625 C 8.71875 0.015625 8.554688 -0.0625 8.421875 -0.21875 L 2.640625 -7.765625 C 2.648438 -7.597656 2.65625 -7.378906 2.65625 -7.109375 L 2.65625 -1 C 2.945312 -0.957031 3.257812 -0.90625 3.59375 -0.84375 C 3.726562 -0.8125 3.796875 -0.722656 3.796875 -0.578125 L 3.796875 0.015625 Z M 0.484375 0.015625 "/></g></g></g></svg>